Motion_pu05
version=1
nRows=6
nColumns=43
inDegrees=yes
endheader
time	pelvis_tilt	pelvis_list	pelvis_rotation	pelvis_tx	pelvis_ty	pelvis_tz	hip_flexion_r	hip_adduction_r	hip_rotation_r	knee_angle_r	ankle_angle_r	subtalar_angle_r	mtp_angle_r	hip_flexion_l	hip_adduction_l	hip_rotation_l	knee_angle_l	ankle_angle_l	subtalar_angle_l	mtp_angle_l	lumbar_extension	lumbar_bending	lumbar_rotation	neck_flexion	neck_lateral_bending	neck_rotation	arm_flex_r	arm_add_r	arm_rot_r	elbow_flex_r	pro_sup_r	wrist_flex_r	wrist_dev_r	hand_finger_flex_r	arm_flex_l	arm_add_l	arm_rot_l	elbow_flex_l	pro_sup_l	wrist_flex_l	wrist_dev_l	hand_finger_flex_l
      0.00250000	     -3.82580542	      1.23541796	    -91.34021454	     -0.03349196	      0.94304855	      0.66101029	     -5.35231903	     -2.79318295	     -5.41001719	    -10.11897527	     11.25930797	      8.27860988	     10.32728692	     -3.17398833	    -13.13440932	    -12.09869085	    -15.27467386	     13.48292051	     28.27687450	      9.10297356	     -8.78900478	      5.71406890	      6.94420596	     32.28620160	     -1.94887215	     -6.28682345	    -52.62981727	   -134.43907448	   -138.55615236	     78.17899963	    122.12157334	     -9.77844910	     -8.74395198	    -21.79406492	    131.46985416	    -33.41576882	     43.13163205	     58.38735303	    120.60401338	    -19.41977696	      2.36594132	    -14.10067034
      0.00500000	     -3.68232249	      1.33706557	    -91.35739700	     -0.03285187	      0.94309424	      0.66203842	     -5.36335144	     -2.98815578	     -5.58811184	     -9.98371190	     11.30253575	      8.27148206	     10.39993034	     -3.16658063	    -12.90713818	    -12.30963528	    -15.20555840	     13.64600567	     28.26000757	      9.18095639	     -8.71134895	      5.65084674	      6.95495594	     32.69091203	     -1.83499621	     -6.75701028	    -52.01519624	   -134.99772448	   -138.22937663	     77.46343953	    122.00030739	     -9.48952823	     -8.83787673	    -21.79793294	    131.68364150	    -33.08364918	     42.93506895	     57.80528713	    120.97587094	    -19.20415669	      2.40524326	    -14.24435669
      0.00750000	     -3.69425937	      1.38160837	    -91.34684521	     -0.03267165	      0.94375854	      0.66369938	     -5.42050342	     -2.95384519	     -5.59361329	    -10.02137330	     11.28972821	      8.27680946	     10.40218061	     -3.20912582	    -12.88988061	    -12.31165743	    -15.23122162	     13.63878683	     28.25966626	      9.18314081	     -8.61411859	      5.59481889	      6.97220211	     32.70686122	     -1.83737321	     -6.77278752	    -51.87789149	   -135.17331337	   -138.26446087	     77.38105857	    121.99550772	     -9.48134999	     -8.83197536	    -21.79996177	    131.71899781	    -32.84037700	     42.97209456	     57.89224270	    120.99696529	    -19.19004506	      2.37889699	    -14.24970130
      0.01000000	     -3.57519321	      0.88337482	    -91.65791099	     -0.03187649	      0.94468167	      0.66190021	     -5.32941274	     -3.28776230	     -5.88304860	    -10.85604167	     11.33823283	      8.93234558	     11.05060115	     -3.33812122	    -12.70388025	    -12.27058133	    -15.93054864	     13.75522197	     28.18283486	      9.70160917	     -9.73253309	      5.57995677	      7.63941568	     33.86161793	     -2.86413062	     -8.38893849	    -49.75637812	   -135.59284924	   -136.89534179	     76.18125260	    121.10640870	     -8.46665404	     -9.03516329	    -22.31510153	    132.29133951	    -32.22908249	     41.85447704	     57.06360946	    123.33595050	    -17.27840060	      1.88356133	    -15.25840672
      0.01250000	     -3.57896974	      0.97295011	    -91.57413705	     -0.03149290	      0.94491869	      0.66378258	     -5.39629983	     -3.30161384	     -5.86999184	    -10.79064796	     11.21922126	      8.97633547	     11.08675023	     -3.38396851	    -12.67842350	    -12.37576759	    -15.82240618	     13.63069378	     28.10152285	      9.72731779	     -9.51637955	      5.63524709	      7.58658009	     33.73580748	     -2.70685121	     -8.34579812	    -49.50322028	   -136.01512973	   -136.74679297	     75.62025215	    121.09730509	     -8.40787086	     -8.94754744	    -22.37094060	    132.35106711	    -31.89652114	     41.85702177	     56.60543208	    123.43008876	    -17.04567947	      2.00170229	    -15.32443980
      0.01500000	     -3.57917450	      1.03534852	    -91.56496006	     -0.03176074	      0.94537811	      0.66509061	     -5.42220369	     -3.25259186	     -5.89909903	    -10.78958272	     11.14463280	      8.99025021	     11.09965549	     -3.38704506	    -12.70367659	    -12.39431192	    -15.80861562	     13.55486423	     28.07828555	      9.73667736	     -9.42248837	      5.55224371	      7.61612193	     33.71616005	     -2.68568888	     -8.33134505	    -49.31035606	   -136.25102572	   -136.75894072	     75.15699076	    121.09871677	     -8.36644490	     -8.87554854	    -22.38899174	    132.46984794	    -31.56627294	     41.86538732	     56.53088759	    123.46084060	    -16.93991350	      2.02169782	    -15.34827181
